<svg id="visual" viewBox="0 0 1000 100" width="1000" height="100" xmlns="http://www.w3.org/2000/svg" xmlns:xlink="http://www.w3.org/1999/xlink" version="1.1"><path d="M0 45L23.8 46.7C47.7 48.3 95.3 51.7 143 48.2C190.7 44.7 238.3 34.3 286 35.2C333.7 36 381.3 48 428.8 54.8C476.3 61.7 523.7 63.3 571.2 56.7C618.7 50 666.3 35 714 26.5C761.7 18 809.3 16 857 22.8C904.7 29.7 952.3 45.3 976.2 53.2L1000 61L1000 101L976.2 101C952.3 101 904.7 101 857 101C809.3 101 761.7 101 714 101C666.3 101 618.7 101 571.2 101C523.7 101 476.3 101 428.8 101C381.3 101 333.7 101 286 101C238.3 101 190.7 101 143 101C95.3 101 47.7 101 23.8 101L0 101Z" fill="#1B1E2A" stroke-linecap="round" stroke-linejoin="miter"></path></svg>